<svg width="146" height="60" viewBox="0 0 146 60" fill="none" xmlns="http://www.w3.org/2000/svg">
<path fill-rule="evenodd" clip-rule="evenodd" d="M45.8665 31.7886C47.5454 31.7886 48.7468 31.0937 48.7468 29.7592C48.7468 28.4069 47.7487 27.6698 46.1389 27.6698H44.4702V31.7886H45.8665ZM54.1004 40.4114C54.1004 40.4114 53.4944 40.6356 52.0593 40.6356C46.6734 40.6356 48.4854 34.9331 45.2262 34.9331H44.4702V40.5034H40.2942V24.3201H46.3082C50.6369 24.3201 52.8093 25.8087 52.8093 29.6131C52.8093 32.0222 51.1986 33.205 50.3113 33.7002C51.5911 35.2489 51.4962 37.1618 53.388 37.1618H54.1004V40.4114Z" fill="#304087"/>
<path fill-rule="evenodd" clip-rule="evenodd" d="M62.1343 37.1614C63.5026 37.1614 64.1195 36.6876 64.1195 35.4139C64.1195 34.1347 63.25 33.6246 62.044 33.6246H60.0211V37.1614H62.1343ZM61.6397 30.7432C63.0223 30.7432 63.5564 30.2045 63.5564 29.1752C63.5564 28.1772 62.8319 27.6693 61.3376 27.6693H60.0211V30.7432H61.6397ZM67.5073 32.8068C68.2896 33.441 68.9296 34.4309 68.9296 35.8694C68.9296 39.2909 66.4184 40.5029 63.4492 40.5029H55.8223V24.3201H62.6298C65.9213 24.3201 67.8467 25.5415 67.8467 28.7002C67.8467 31.4563 66.1268 31.8679 65.2494 31.8679V31.9322C65.8007 31.9322 66.7181 32.182 67.5073 32.8068Z" fill="#304087"/>
<path fill-rule="evenodd" clip-rule="evenodd" d="M70.9209 40.5034V24.3201H75.1143V37.1618H81.5843V40.5034H70.9209Z" fill="#304087"/>
<path fill-rule="evenodd" clip-rule="evenodd" d="M91.562 38.1455C93.2239 38.1455 94.6186 37.6144 94.6186 35.6808C94.6186 33.8851 93.2934 33.2046 91.5427 33.2046H88.484V38.1455H91.562ZM91.2961 31.133C93.11 31.133 93.7102 30.2396 93.7102 28.8962C93.7102 27.5143 92.8067 26.6805 90.8254 26.6805H88.484V31.133H91.2961ZM85.5811 40.5029V24.3201H91.4625C94.7641 24.3201 96.6807 25.5967 96.6807 28.5674C96.6807 31.488 94.9595 31.9819 94.1829 31.9819V32.0216C95.2326 32.0216 97.7518 32.9163 97.7518 36.0071C97.7518 39.3766 95.0838 40.5029 92.1041 40.5029H85.5811Z" fill="#ED3338"/>
<path fill-rule="evenodd" clip-rule="evenodd" d="M103.852 34.0886H108.213L106.016 27.8968L103.852 34.0886ZM108.963 36.3385H103.082L101.653 40.5034H98.636L104.566 24.3201H107.497L113.416 40.5034H110.408L108.963 36.3385Z" fill="#ED3338"/>
<path fill-rule="evenodd" clip-rule="evenodd" d="M124.68 40.5034L118.37 29.6131V40.5034H115.461V24.3201H118.5L124.854 35.5423V24.3201H127.723V40.5034H124.68Z" fill="#ED3338"/>
<path fill-rule="evenodd" clip-rule="evenodd" d="M144.506 38.3072C142.434 38.3072 142.381 34.8114 140.66 33.0721C140.502 32.9163 139.706 31.9595 138.376 31.5936L144.531 24.3201H140.829L134.664 31.526V31.488V24.3201H131.763V32.4691V36.6872V40.5029H134.664V36.6872V35.9703L136.472 33.8472H136.642C140.044 33.8472 138.949 40.6166 143.631 40.6166C144.577 40.6166 145.178 40.4709 145.178 40.4709V38.3072H144.506Z" fill="#ED3338"/>
<path fill-rule="evenodd" clip-rule="evenodd" d="M8.05142 10.2743V0H0V24.3012C0 18.3187 3.24112 13.0696 8.05142 10.2743Z" fill="#304087"/>
<path fill-rule="evenodd" clip-rule="evenodd" d="M17.1159 8.13794V16.2646C21.0937 16.7628 24.1785 20.1674 24.1785 24.2934C24.1785 28.7804 20.5727 32.4049 16.1121 32.4049C11.6661 32.4049 8.05191 28.7804 8.05191 24.2934H8.04395V38.3283C10.4202 39.7041 13.1764 40.5093 16.1121 40.5093C25.0177 40.5093 32.2345 33.2577 32.2345 24.3031C32.2345 15.7006 25.5531 8.65505 17.1159 8.13794Z" fill="#304087"/>
<path fill-rule="evenodd" clip-rule="evenodd" d="M8.05142 10.2763C3.24112 13.0716 0 18.3207 0 24.3032V39.2735V42.5197H8.05142V40.3974V38.3278V24.2933H8.05938C8.05938 20.1674 11.1357 16.7628 15.1147 16.2647V8.13794C12.5523 8.29198 10.1449 9.05361 8.05142 10.2763Z" fill="#ED3338"/>
<path fill-rule="evenodd" clip-rule="evenodd" d="M73.9473 53.4916C73.9795 53.3134 73.8943 52.4247 72.9035 52.4247C72.1483 52.4247 71.4226 53.0169 71.1129 54.2616C70.8003 55.5189 71.3104 56.0758 72.0066 56.0758C73.1156 56.0758 73.5846 54.9025 73.5876 54.938L73.9473 53.4916ZM74.8088 57.0954C74.8088 57.0954 74.5813 57.1549 74.2276 57.1549C73.59 57.1549 73.2627 56.8108 73.4072 56.2299L73.422 56.1708C73.2955 56.349 72.6761 57.1786 71.3899 57.1786C70.2691 57.1786 69.3548 56.3008 69.8594 54.2743C70.3876 52.1515 71.6798 51.3215 72.9181 51.3215C73.9801 51.3215 74.328 51.962 74.4367 52.0925L74.6111 51.3928H75.7437L74.696 55.6016C74.6107 55.9453 74.6671 56.1471 75.0445 56.1471L74.8088 57.0954Z" fill="#304087"/>
<path fill-rule="evenodd" clip-rule="evenodd" d="M78.5103 54.9849C78.472 55.1867 78.5342 56.0759 79.525 56.0759C80.3154 56.0759 81.0407 55.4832 81.3509 54.2381C81.6782 52.922 81.1063 52.4247 80.4218 52.4247C79.372 52.4247 78.8645 53.5625 78.8645 53.5625L78.5103 54.9849ZM75.988 60L77.7585 52.8866C77.8408 52.5547 77.785 52.3534 77.4076 52.3534L77.6433 51.4052C77.6433 51.4052 77.8584 51.3456 78.2245 51.3456C78.8145 51.3456 79.1888 51.6888 79.0502 52.2466L79.0326 52.3179C79.1948 52.092 79.8116 51.3215 81.0504 51.3215C82.1946 51.3215 83.1264 52.1756 82.6187 54.2148C82.0879 56.3485 80.7486 57.1786 79.5103 57.1786C78.3779 57.1786 78.1475 56.4435 78.1475 56.4435L77.2621 60H75.988Z" fill="#304087"/>
<path fill-rule="evenodd" clip-rule="evenodd" d="M89.1624 57.0954C89.1624 57.0954 88.947 57.155 88.5814 57.155C87.8262 57.155 87.4959 56.7281 87.7322 55.7795L88.2628 53.6452C88.4427 52.922 88.2129 52.4247 87.47 52.4247C86.6202 52.4247 86.0626 53.2425 85.9122 53.8471L85.1008 57.1073H83.8267L84.8772 52.8866C84.9596 52.5547 84.9036 52.3534 84.5262 52.3534L84.7621 51.4047C84.7621 51.4047 84.9772 51.3456 85.3431 51.3456C85.921 51.3456 86.2811 51.7015 86.1454 52.2466L86.1013 52.4247C86.4168 51.867 87.0597 51.3215 88.1098 51.3215C89.5491 51.3215 89.8765 52.3298 89.5668 53.5743L89.0621 55.6017C88.9768 55.9453 89.0326 56.1472 89.3987 56.1472L89.1624 57.0954Z" fill="#304087"/>
<path fill-rule="evenodd" clip-rule="evenodd" d="M95.117 54.2502C95.4149 53.0529 95.0758 52.4247 94.2383 52.4247C93.4123 52.4247 92.7609 53.0529 92.463 54.2502C92.1649 55.4475 92.4924 56.0758 93.3298 56.0758C94.1912 56.0758 94.8191 55.4475 95.117 54.2502ZM91.2119 54.2502C91.6604 52.4479 92.9084 51.3215 94.5132 51.3215C96.1289 51.3215 96.8281 52.4479 96.3798 54.2502C95.9344 56.0402 94.6833 57.179 93.0555 57.179C91.4506 57.179 90.7636 56.0525 91.2119 54.2502Z" fill="#304087"/>
<path fill-rule="evenodd" clip-rule="evenodd" d="M106.098 57.0589C106.098 57.0589 105.85 57.1539 105.555 57.1539C103.62 57.1539 104.983 54.4743 103.213 54.4743H102.541L101.886 57.1062H100.624L102.765 48.4994H104.027L102.78 53.5142H103.512C104.455 53.5142 105.334 52.7319 105.667 51.3918H106.859C106.602 52.4236 105.968 53.5492 104.753 53.9288C105.753 54.4624 105.016 56.1462 106.207 56.1462H106.325L106.098 57.0589Z" fill="#304087"/>
<path fill-rule="evenodd" clip-rule="evenodd" d="M111.974 53.4916C112.007 53.3134 111.921 52.4247 110.93 52.4247C110.175 52.4247 109.449 53.0169 109.14 54.2616C108.827 55.5189 109.337 56.0758 110.033 56.0758C111.143 56.0758 111.611 54.9025 111.615 54.938L111.974 53.4916ZM112.835 57.0954C112.835 57.0954 112.608 57.1549 112.254 57.1549C111.617 57.1549 111.29 56.8108 111.434 56.2299L111.449 56.1708C111.322 56.349 110.703 57.1786 109.417 57.1786C108.296 57.1786 107.381 56.3008 107.886 54.2743C108.414 52.1515 109.706 51.3215 110.945 51.3215C112.007 51.3215 112.355 51.962 112.464 52.0925L112.638 51.3928H113.77L112.723 55.6016C112.638 55.9453 112.694 56.1471 113.071 56.1471L112.835 57.0954Z" fill="#304087"/>
<path fill-rule="evenodd" clip-rule="evenodd" d="M119.54 54.9483C119.49 55.1502 119.543 56.0748 120.558 56.0748C121.336 56.0748 122.062 55.4821 122.371 54.237C122.699 52.921 122.139 52.4236 121.454 52.4236C120.404 52.4236 119.885 53.5615 119.885 53.5615L119.54 54.9483ZM117.729 57.1062L119.871 48.4994H121.144L120.23 52.1745C120.245 52.1624 120.856 51.3204 122.071 51.3204C123.215 51.3204 124.147 52.1745 123.64 54.2137C123.109 56.3474 121.781 57.1775 120.543 57.1775C119.457 57.1775 119.148 56.478 119.039 56.3474L118.849 57.1062H117.729Z" fill="#304087"/>
<path fill-rule="evenodd" clip-rule="evenodd" d="M129.229 53.4916C129.261 53.3134 129.175 52.4247 128.185 52.4247C127.43 52.4247 126.704 53.0169 126.394 54.2616C126.082 55.5189 126.592 56.0758 127.288 56.0758C128.397 56.0758 128.866 54.9025 128.869 54.938L129.229 53.4916ZM130.09 57.0954C130.09 57.0954 129.862 57.1549 129.509 57.1549C128.871 57.1549 128.544 56.8108 128.689 56.2299L128.703 56.1708C128.577 56.349 127.957 57.1786 126.671 57.1786C125.55 57.1786 124.636 56.3008 125.14 54.2743C125.668 52.1515 126.961 51.3215 128.2 51.3215C129.261 51.3215 129.609 51.962 129.718 52.0925L129.893 51.3928H131.025L129.977 55.6016C129.892 55.9453 129.948 56.1471 130.325 56.1471L130.09 57.0954Z" fill="#304087"/>
<path fill-rule="evenodd" clip-rule="evenodd" d="M137.332 57.0954C137.332 57.0954 137.116 57.155 136.751 57.155C135.996 57.155 135.665 56.7281 135.902 55.7795L136.433 53.6452C136.613 52.922 136.383 52.4247 135.639 52.4247C134.79 52.4247 134.232 53.2425 134.082 53.8471L133.271 57.1073H131.997L133.047 52.8866C133.13 52.5547 133.073 52.3534 132.696 52.3534L132.931 51.4047C132.931 51.4047 133.147 51.3456 133.513 51.3456C134.091 51.3456 134.451 51.7015 134.315 52.2466L134.271 52.4247C134.586 51.867 135.23 51.3215 136.279 51.3215C137.719 51.3215 138.046 52.3298 137.737 53.5743L137.232 55.6017C137.147 55.9453 137.202 56.1472 137.569 56.1472L137.332 57.0954Z" fill="#304087"/>
<path fill-rule="evenodd" clip-rule="evenodd" d="M144.404 57.0589C144.404 57.0589 144.156 57.1539 143.862 57.1539C141.927 57.1539 143.29 54.4743 141.52 54.4743H140.847L140.192 57.1062H138.93L141.072 48.4994H142.334L141.086 53.5142H141.818C142.762 53.5142 143.641 52.7319 143.974 51.3918H145.166C144.909 52.4236 144.274 53.5492 143.06 53.9288C144.06 54.4624 143.322 56.1462 144.514 56.1462H144.632L144.404 57.0589Z" fill="#304087"/>
</svg>
